<svg width="223" height="101" viewBox="0 0 223 101" fill="none" xmlns="http://www.w3.org/2000/svg">
<path d="M47.5 0.1875C48.8333 0.229167 50 0.25 51 0.25C52 0.208333 52.8125 0.1875 53.4375 0.1875H55.25C55.7083 0.145833 56.2708 0.125 56.9375 0.125C57.5208 0.125 58.2292 0.125 59.0625 0.125C59.8958 0.125 60.8542 0.145833 61.9375 0.1875C62.2708 1.35417 62.6458 2.5 63.0625 3.625C63.5208 4.70833 63.9167 5.6875 64.25 6.5625C64.6667 7.60417 65.0833 8.58333 65.5 9.5C65.9167 10.4167 66.4167 11.5208 67 12.8125C67.5 13.8958 68.1042 15.2292 68.8125 16.8125C69.5208 18.3542 70.3542 20.125 71.3125 22.125C71.7708 20.8333 72.1875 19.6458 72.5625 18.5625C72.9792 17.4792 73.3333 16.5417 73.625 15.75C73.9583 14.8333 74.2292 14 74.4375 13.25C74.6458 12.5 74.875 11.5833 75.125 10.5C75.3333 9.58333 75.5625 8.47917 75.8125 7.1875C76.1042 5.89583 76.3958 4.39583 76.6875 2.6875C77.8958 2.6875 78.9792 2.6875 79.9375 2.6875C80.8958 2.6875 81.7292 2.66667 82.4375 2.625C83.2292 2.625 83.9375 2.60417 84.5625 2.5625C85.2292 2.5625 86.125 2.52083 87.25 2.4375C88.2083 2.35417 89.4792 2.29167 91.0625 2.25C92.6875 2.16667 94.6875 2.0625 97.0625 1.9375C96.1875 2.5625 95.4792 3.1875 94.9375 3.8125C94.4375 4.39583 94.0417 4.91667 93.75 5.375C93.4167 5.91667 93.2083 6.4375 93.125 6.9375C93.0417 7.35417 92.9583 8.3125 92.875 9.8125C92.8333 11.3125 92.7708 13.1042 92.6875 15.1875C92.6458 17.2292 92.6042 19.4167 92.5625 21.75C92.5625 24.0833 92.5833 26.2917 92.625 28.375C92.6667 30.4583 92.7292 32.2708 92.8125 33.8125C92.9375 35.3125 93.1042 36.2708 93.3125 36.6875C93.6042 37.1875 94 37.7708 94.5 38.4375C94.9583 39.0208 95.5417 39.6875 96.25 40.4375C97 41.1875 97.9792 42.0208 99.1875 42.9375C97.2708 43.0208 95.6667 43.0833 94.375 43.125C93.125 43.1667 92.0833 43.2083 91.25 43.25C90.2917 43.2917 89.5208 43.3125 88.9375 43.3125C88.3125 43.3125 87.4583 43.3333 86.375 43.375C85.4167 43.4167 84.1458 43.4792 82.5625 43.5625C80.9792 43.6042 78.9375 43.6875 76.4375 43.8125C77.0208 43.1458 77.5625 42.4792 78.0625 41.8125C78.5625 41.1458 78.9792 40.5417 79.3125 40C79.7292 39.375 80.0833 38.7708 80.375 38.1875C80.6667 37.3958 80.8958 35.9583 81.0625 33.875C81.2292 32.0833 81.3542 29.5208 81.4375 26.1875C81.5208 22.8125 81.5208 18.2917 81.4375 12.625C80.6458 13.9167 79.9375 15.2083 79.3125 16.5C78.7292 17.75 78.2083 18.8958 77.75 19.9375C77.25 21.1458 76.7917 22.3125 76.375 23.4375C75.9583 24.6042 75.5208 25.8958 75.0625 27.3125C74.6458 28.5208 74.1458 29.9583 73.5625 31.625C73.0208 33.2917 72.3958 35.125 71.6875 37.125L69.3125 37.25C68.9792 35.5833 68.6458 34.0833 68.3125 32.75C67.9792 31.375 67.6458 30.2083 67.3125 29.25C66.9375 28.125 66.5625 27.125 66.1875 26.25C65.7708 25.375 65.3125 24.3958 64.8125 23.3125C64.3542 22.3958 63.7917 21.3125 63.125 20.0625C62.5 18.8125 61.7708 17.4167 60.9375 15.875C60.5208 20.125 60.2708 23.5833 60.1875 26.25C60.1042 28.875 60.1042 30.9167 60.1875 32.375C60.2708 34.125 60.3958 35.3958 60.5625 36.1875C60.8125 36.8958 61.2083 37.6875 61.75 38.5625C62.2083 39.3125 62.8333 40.2083 63.625 41.25C64.4583 42.25 65.5208 43.375 66.8125 44.625C65.8958 44.625 64.9375 44.625 63.9375 44.625C62.9375 44.625 62.0208 44.6458 61.1875 44.6875C60.1875 44.7292 59.2083 44.75 58.25 44.75C57.25 44.7917 56.0833 44.8542 54.75 44.9375C53.5833 45.0208 52.1875 45.1042 50.5625 45.1875C48.9375 45.2708 47.0625 45.4167 44.9375 45.625C45.8542 45.0417 46.6042 44.4792 47.1875 43.9375C47.7708 43.3542 48.2292 42.8333 48.5625 42.375C48.9792 41.8333 49.2917 41.2917 49.5 40.75C49.625 40.4167 49.7292 39.6875 49.8125 38.5625C49.9375 37.4375 50.0417 36.0625 50.125 34.4375C50.25 32.8125 50.3333 31 50.375 29C50.4583 27 50.5208 24.9792 50.5625 22.9375C50.6458 20.8542 50.7083 18.8333 50.75 16.875C50.7917 14.875 50.8125 13.0833 50.8125 11.5C50.8542 9.875 50.875 8.52083 50.875 7.4375C50.875 6.35417 50.875 5.66667 50.875 5.375C50.75 4.75 50.5625 4.125 50.3125 3.5C50.1042 2.95833 49.7708 2.39583 49.3125 1.8125C48.8542 1.22917 48.25 0.6875 47.5 0.1875ZM103.875 19.6875C104.083 19.4375 104.208 18.9792 104.25 18.3125C104.333 17.6042 104.5 16.8125 104.75 15.9375C105.042 15.0625 105.521 14.1458 106.188 13.1875C106.854 12.2292 107.938 11.3333 109.438 10.5C110.896 9.66667 112.312 9.16667 113.688 9C115.062 8.83333 116.375 8.89583 117.625 9.1875C118.875 9.47917 120.042 9.9375 121.125 10.5625C122.25 11.1875 123.271 11.875 124.188 12.625C124.812 13.125 125.312 13.8542 125.688 14.8125C126.062 15.7292 126.354 16.7708 126.562 17.9375C126.771 19.1042 126.917 20.3333 127 21.625C127.125 22.875 127.208 24.1042 127.25 25.3125C127.292 26.4792 127.312 27.5625 127.312 28.5625C127.354 29.5208 127.438 30.3125 127.562 30.9375C127.729 31.8542 128.021 32.6458 128.438 33.3125C128.854 33.9375 129.312 34.4792 129.812 34.9375C130.312 35.3542 130.812 35.6875 131.312 35.9375C131.812 36.1875 132.25 36.375 132.625 36.5C132.875 36.625 133.104 36.7083 133.312 36.75C133.729 36.9167 134.021 36.9167 134.188 36.75C133.938 37.3333 133.708 37.8333 133.5 38.25C133.292 38.6667 133.125 39.0208 133 39.3125C132.833 39.6458 132.688 39.9167 132.562 40.125C132.438 40.375 132.292 40.6042 132.125 40.8125C132 41.0208 131.833 41.25 131.625 41.5C131.417 41.75 131.208 42.0208 131 42.3125C130.458 42.1042 129.938 41.8542 129.438 41.5625C128.979 41.2708 128.562 41 128.188 40.75C127.729 40.4583 127.312 40.1667 126.938 39.875C126.562 39.5833 126.208 39.25 125.875 38.875C125.583 38.5417 125.271 38.1875 124.938 37.8125C124.646 37.4375 124.396 37.0208 124.188 36.5625C123.938 37.1042 123.333 37.875 122.375 38.875C121.458 39.875 120.25 40.7917 118.75 41.625C117.25 42.4167 115.5 42.9792 113.5 43.3125C111.542 43.6458 109.375 43.4167 107 42.625C105.958 42.2917 104.979 41.8125 104.062 41.1875C103.146 40.5208 102.354 39.7292 101.688 38.8125C101.062 37.8958 100.604 36.8542 100.312 35.6875C100.062 34.4792 100.083 33.1458 100.375 31.6875C100.667 30.2292 101.188 29 101.938 28C102.688 27 103.583 26.1875 104.625 25.5625C105.667 24.9375 106.833 24.4583 108.125 24.125C109.417 23.7917 110.75 23.5625 112.125 23.4375C113.208 23.3958 114.292 23.4583 115.375 23.625C116.292 23.7917 117.25 24.1042 118.25 24.5625C119.25 24.9792 120.104 25.625 120.812 26.5C120.771 24.2917 120.688 22.5417 120.562 21.25C120.479 19.9167 120.396 18.8958 120.312 18.1875C120.146 17.3542 120 16.7708 119.875 16.4375C119.667 16.1458 119.438 15.8125 119.188 15.4375C118.979 15.0625 118.708 14.7292 118.375 14.4375C118.042 14.1042 117.625 13.8333 117.125 13.625C116.625 13.4167 116.042 13.3333 115.375 13.375C114.667 13.4167 114.104 13.6042 113.688 13.9375C113.271 14.2708 112.938 14.6667 112.688 15.125C112.479 15.5417 112.354 16 112.312 16.5C112.271 17 112.292 17.4375 112.375 17.8125C112.458 18.0625 112.583 18.3333 112.75 18.625C112.917 18.875 113.146 19.1458 113.438 19.4375C113.729 19.7292 114.125 19.9792 114.625 20.1875C113.667 20.3125 112.812 20.4167 112.062 20.5C111.312 20.5417 110.667 20.6042 110.125 20.6875C109.5 20.7708 108.958 20.8333 108.5 20.875C108.042 20.9167 107.5 21 106.875 21.125C106.333 21.2083 105.667 21.3125 104.875 21.4375C104.083 21.5625 103.167 21.7292 102.125 21.9375C102.375 21.6458 102.604 21.375 102.812 21.125C103.021 20.8333 103.208 20.5833 103.375 20.375C103.542 20.125 103.708 19.8958 103.875 19.6875ZM113.25 27.125C112.5 27.1667 111.75 27.3542 111 27.6875C110.25 27.9792 109.583 28.4167 109 29C108.417 29.5417 107.917 30.1875 107.5 30.9375C107.125 31.6458 106.938 32.4375 106.938 33.3125C106.938 34.1875 107.146 34.9583 107.562 35.625C108.021 36.25 108.604 36.7708 109.312 37.1875C110.062 37.6042 110.854 37.8542 111.688 37.9375C112.562 38.0208 113.417 37.9375 114.25 37.6875C115.042 37.3958 115.792 36.9375 116.5 36.3125C117.208 35.6458 117.812 34.9375 118.312 34.1875C118.812 33.3958 119.167 32.625 119.375 31.875C119.583 31.0833 119.604 30.4375 119.438 29.9375C119.104 28.8542 118.354 28.1042 117.188 27.6875C116.021 27.2292 114.708 27.0417 113.25 27.125ZM133.562 1.125C134.521 1.375 135.396 1.5625 136.188 1.6875C137.021 1.77083 137.729 1.83333 138.312 1.875C139.021 1.91667 139.667 1.9375 140.25 1.9375C140.833 1.9375 141.562 1.89583 142.438 1.8125C143.979 1.6875 146.167 1.375 149 0.875C148.542 1.20833 148.104 1.54167 147.688 1.875C147.312 2.16667 146.979 2.45833 146.688 2.75L145.75 3.6875C145.208 4.4375 144.667 5.70833 144.125 7.5C143.667 9.04167 143.167 11.2083 142.625 14C142.125 16.7917 141.667 20.5 141.25 25.125C143.292 23.125 145.208 21.625 147 20.625C148.833 19.5833 150.438 18.8333 151.812 18.375C153.438 17.875 154.917 17.6042 156.25 17.5625C157.958 17.6875 159.438 18.0417 160.688 18.625C161.979 19.1667 163.062 19.8333 163.938 20.625C164.854 21.375 165.583 22.1667 166.125 23C166.708 23.7917 167.146 24.5 167.438 25.125C167.604 25.5417 167.729 26.3125 167.812 27.4375C167.938 28.5208 167.958 29.7708 167.875 31.1875C167.792 32.6042 167.562 34.1042 167.188 35.6875C166.854 37.2292 166.292 38.6667 165.5 40C164.75 41.2917 163.75 42.375 162.5 43.25C161.292 44.125 159.771 44.6042 157.938 44.6875C155.812 44.6875 153.75 44.4375 151.75 43.9375C150.042 43.5208 148.229 42.7917 146.312 41.75C144.438 40.6667 142.833 39.125 141.5 37.125C141.5 37.625 141.5 38.125 141.5 38.625C141.5 39.0833 141.521 39.4792 141.562 39.8125C141.604 40.2708 141.646 40.6667 141.688 41C141.729 41.375 141.833 41.7708 142 42.1875C142.125 42.5208 142.312 42.9375 142.562 43.4375C142.854 43.8958 143.229 44.3542 143.688 44.8125C143.229 44.7708 142.771 44.75 142.312 44.75C141.854 44.7083 141.396 44.7083 140.938 44.75C140.438 44.7917 139.938 44.8333 139.438 44.875C138.938 44.9167 138.417 44.9792 137.875 45.0625C137.417 45.1458 136.875 45.25 136.25 45.375C135.625 45.5 134.979 45.6458 134.312 45.8125C134.438 45.4375 134.542 44.8958 134.625 44.1875C134.708 43.4375 134.792 42.625 134.875 41.75C135 40.8333 135.083 39.875 135.125 38.875C135.208 37.875 135.292 36.875 135.375 35.875C135.542 33.5833 135.688 31.0833 135.812 28.375C135.938 24.1667 135.958 20.25 135.875 16.625C135.833 15.0833 135.75 13.5208 135.625 11.9375C135.542 10.3542 135.417 8.875 135.25 7.5C135.083 6.08333 134.854 4.83333 134.562 3.75C134.312 2.625 133.979 1.75 133.562 1.125ZM141.688 31.5625C142.354 32.7708 143.062 33.8125 143.812 34.6875C144.562 35.5208 145.312 36.2292 146.062 36.8125C146.812 37.3958 147.542 37.8542 148.25 38.1875C149 38.5208 149.708 38.7708 150.375 38.9375C151.917 39.3542 153.438 39.3958 154.938 39.0625C156.438 38.6458 157.604 37.8125 158.438 36.5625C159.271 35.3125 159.917 33.8958 160.375 32.3125C160.583 31.5625 160.708 30.6042 160.75 29.4375C160.833 28.2708 160.708 27.1458 160.375 26.0625C160.083 24.9375 159.542 23.9583 158.75 23.125C157.958 22.25 156.812 21.7292 155.312 21.5625C154.271 21.5625 153.062 21.8542 151.688 22.4375C150.479 22.9375 149.042 23.7708 147.375 24.9375C145.708 26.0625 143.812 27.75 141.688 30V31.5625ZM170.812 17.0625L182.312 17.1875C181.646 19.7292 181.146 21.8958 180.812 23.6875C180.521 25.4792 180.333 26.9792 180.25 28.1875C180.083 29.5625 180.042 30.7292 180.125 31.6875C180.25 32.5625 180.458 33.5 180.75 34.5C181 35.3333 181.375 36.2917 181.875 37.375C182.375 38.4583 183.042 39.5417 183.875 40.625C183.375 40.4583 182.833 40.3333 182.25 40.25C181.667 40.1667 181.125 40.1042 180.625 40.0625C180.042 40.0208 179.458 40.0208 178.875 40.0625C178.292 40.1042 177.646 40.1667 176.938 40.25C176.354 40.3333 175.646 40.4375 174.812 40.5625C173.979 40.6875 173.104 40.8542 172.188 41.0625C172.812 39.1875 173.292 37.5625 173.625 36.1875C174 34.8125 174.271 33.6667 174.438 32.75C174.604 31.6667 174.708 30.7917 174.75 30.125C174.75 29.2917 174.75 28.3542 174.75 27.3125C174.75 26.2292 174.75 25.1875 174.75 24.1875C174.75 23.1875 174.729 22.3125 174.688 21.5625C174.646 20.7708 174.562 20.2708 174.438 20.0625L173.812 19.4375C173.562 19.2292 173.188 18.9375 172.688 18.5625C172.229 18.1458 171.604 17.6458 170.812 17.0625ZM175.25 7.4375C176.125 6.97917 177 6.85417 177.875 7.0625C178.792 7.27083 179.5 7.66667 180 8.25C180.5 8.83333 180.667 9.52083 180.5 10.3125C180.375 11.1042 179.708 11.875 178.5 12.625C177.292 13.3333 176.229 13.5833 175.312 13.375C174.396 13.1667 173.75 12.7292 173.375 12.0625C173 11.3958 172.938 10.625 173.188 9.75C173.438 8.83333 174.125 8.0625 175.25 7.4375ZM17.375 57.6875C19.4583 57.8125 21.2083 57.9167 22.625 58C24.0833 58.0417 25.2917 58.0833 26.25 58.125C27.3333 58.1667 28.25 58.1667 29 58.125C29.75 58.0833 30.7708 57.9792 32.0625 57.8125C33.1458 57.6875 34.5833 57.5 36.375 57.25C38.2083 56.9583 40.4792 56.5833 43.1875 56.125C42.2292 57.0833 41.4792 57.9583 40.9375 58.75C40.4375 59.5 40.0417 60.1458 39.75 60.6875C39.4167 61.3542 39.1875 61.9167 39.0625 62.375C38.9792 62.7917 39.0625 63.8333 39.3125 65.5C39.5625 67.1667 39.9167 69.1458 40.375 71.4375C40.8333 73.6875 41.3333 76.1042 41.875 78.6875C42.4167 81.2292 42.9583 83.625 43.5 85.875C44.0417 88.0833 44.5208 89.9792 44.9375 91.5625C45.3958 93.1042 45.7292 94.0208 45.9375 94.3125C46.5625 95.1875 46.9583 95.7708 47.125 96.0625C47.2917 96.3125 47.5833 96.5417 48 96.75C48.1667 96.8333 48.4375 96.9583 48.8125 97.125C49.1458 97.2917 49.5833 97.5 50.125 97.75C50.7083 98 51.4375 98.2917 52.3125 98.625C50.6875 98.7083 49.2917 98.7708 48.125 98.8125C46.9583 98.8125 46 98.8333 45.25 98.875C44.375 98.9167 43.625 98.9583 43 99C42.375 99 41.625 99.0417 40.75 99.125C40 99.2083 39.0208 99.2917 37.8125 99.375C36.6458 99.4583 35.2708 99.5417 33.6875 99.625C34.5208 99.0417 35.1875 98.5208 35.6875 98.0625C36.2292 97.5625 36.6458 97.1458 36.9375 96.8125C37.2708 96.3958 37.5 96.0208 37.625 95.6875C37.7083 95.3125 37.7708 94.75 37.8125 94C37.8542 93.3333 37.8542 92.4583 37.8125 91.375C37.7708 90.25 37.6667 88.7917 37.5 87L21.0625 88.6875C20.6458 89.3958 20.3333 90.0208 20.125 90.5625C19.9167 91.0625 19.7708 91.5 19.6875 91.875C19.5625 92.3333 19.5208 92.7083 19.5625 93C19.6458 93.3333 19.7917 93.7292 20 94.1875C20.2083 94.6042 20.5 95.1042 20.875 95.6875C21.2917 96.2292 21.8958 96.875 22.6875 97.625C21.6458 97.5833 20.5833 97.5625 19.5 97.5625C18.4167 97.5625 17.4167 97.5833 16.5 97.625C15.4167 97.6667 14.3542 97.7083 13.3125 97.75C12.2708 97.7917 11.0833 97.8542 9.75 97.9375C8.625 98.0208 7.3125 98.125 5.8125 98.25C4.27083 98.3333 2.625 98.4583 0.875 98.625C1.95833 98.125 2.875 97.625 3.625 97.125C4.375 96.5833 5 96.0833 5.5 95.625C6.08333 95.125 6.58333 94.6458 7 94.1875C7.29167 93.7708 7.875 92.8125 8.75 91.3125C9.625 89.7708 10.6042 87.9583 11.6875 85.875C12.8125 83.7917 13.9792 81.5625 15.1875 79.1875C16.4375 76.8125 17.5625 74.5833 18.5625 72.5C19.5625 70.375 20.375 68.5417 21 67C21.625 65.4583 21.9375 64.4583 21.9375 64C21.8542 63.4583 21.6458 62.8542 21.3125 62.1875C21.0208 61.6042 20.5625 60.9375 19.9375 60.1875C19.3542 59.4375 18.5 58.6042 17.375 57.6875ZM36.75 82.375C36.5 80.9167 36.2708 79.6667 36.0625 78.625C35.8542 77.5417 35.6875 76.6458 35.5625 75.9375C35.3958 75.1042 35.2708 74.375 35.1875 73.75C35.0625 73.1667 34.9167 72.4167 34.75 71.5C34.5833 70.7083 34.375 69.7292 34.125 68.5625C33.9167 67.3542 33.6458 65.9167 33.3125 64.25C30.9375 69 29.0833 72.6875 27.75 75.3125C26.4583 77.8958 25.5208 79.7917 24.9375 81C24.2292 82.4167 23.8333 83.25 23.75 83.5L36.75 82.375ZM50.3125 71.25C51.3958 71.4583 52.3333 71.625 53.125 71.75C53.9583 71.8333 54.6667 71.9167 55.25 72C55.9167 72.0833 56.5 72.1458 57 72.1875C57.5 72.2292 58.0833 72.2708 58.75 72.3125C59.875 72.3542 61.4583 72.3542 63.5 72.3125C62.2917 72.2292 61.3333 72.5417 60.625 73.25C59.9583 73.9167 59.4583 74.6875 59.125 75.5625C58.7083 76.6042 58.4792 77.8125 58.4375 79.1875C58.3542 81.0208 58.3958 82.6875 58.5625 84.1875C58.7708 85.6458 59.125 86.8958 59.625 87.9375C60.1667 88.9375 60.875 89.6875 61.75 90.1875C62.625 90.6458 63.75 90.7708 65.125 90.5625C66.5 90.3542 67.5417 89.875 68.25 89.125C69 88.3333 69.5417 87.375 69.875 86.25C70.2083 85.0833 70.3958 83.7708 70.4375 82.3125C70.5208 80.8542 70.5833 79.3333 70.625 77.75C70.625 76.1667 70.6042 75.0417 70.5625 74.375C70.5625 73.6667 70.5417 73.2083 70.5 73C70.4583 72.7917 70.3958 72.7083 70.3125 72.75C70.2292 72.75 70.125 72.6458 70 72.4375C69.9167 72.2708 69.7917 72.1042 69.625 71.9375C69.5 71.7708 69.3333 71.5833 69.125 71.375C68.9167 71.125 68.6875 70.875 68.4375 70.625C69.5208 70.6667 70.4792 70.7083 71.3125 70.75C72.1875 70.75 72.9167 70.7708 73.5 70.8125C74.1667 70.8542 74.75 70.8958 75.25 70.9375C75.7083 70.9792 76.3125 71.0417 77.0625 71.125C77.6875 71.2083 78.5 71.2917 79.5 71.375C80.5 71.4583 81.6875 71.5833 83.0625 71.75C82.1042 71.9583 81.3333 72.2708 80.75 72.6875C80.1667 73.1042 79.7083 73.5208 79.375 73.9375C79 74.3958 78.7292 74.8958 78.5625 75.4375C78.4375 76.1458 78.4375 77.2292 78.5625 78.6875C78.6458 79.9792 78.8542 81.75 79.1875 84C79.5208 86.25 80.0417 89.2083 80.75 92.875L75.8125 95.8125L74.8125 87.5C73.6042 89.5417 72.3125 91.125 70.9375 92.25C69.6042 93.3333 68.3542 94.125 67.1875 94.625C65.8125 95.2083 64.4792 95.5417 63.1875 95.625C61.4792 95.625 60 95.5208 58.75 95.3125C57.5417 95.0625 56.5 94.75 55.625 94.375C54.75 94 54.0417 93.5833 53.5 93.125C53 92.625 52.625 92.125 52.375 91.625C51.7917 90.5833 51.4792 89.25 51.4375 87.625C51.3958 85.9583 51.4583 84.3125 51.625 82.6875C51.7917 81.0208 51.9792 79.5 52.1875 78.125C52.3958 76.75 52.4583 75.8125 52.375 75.3125C52.2917 74.9375 52.1667 74.5208 52 74.0625C51.8333 73.6875 51.625 73.2708 51.375 72.8125C51.125 72.3125 50.7708 71.7917 50.3125 71.25ZM118.938 77.8125C118.438 77.7292 117.812 77.6667 117.062 77.625C116.354 77.5833 115.667 77.5625 115 77.5625C114.25 77.5625 113.458 77.5833 112.625 77.625C111.75 77.6667 110.875 77.7083 110 77.75C109.25 77.7917 108.396 77.8542 107.438 77.9375C106.521 77.9792 105.625 78.0417 104.75 78.125C105.083 77.9583 105.375 77.7292 105.625 77.4375C105.917 77.1458 106.167 76.8542 106.375 76.5625C106.583 76.2292 106.771 75.875 106.938 75.5C107.146 74.875 107.125 74.125 106.875 73.25C106.625 72.3333 106.167 71.5 105.5 70.75C104.875 70 104.062 69.4167 103.062 69C102.104 68.5417 101.042 68.4375 99.875 68.6875C98.625 68.9792 97.5 69.4167 96.5 70C95.5417 70.5833 94.7292 71.3958 94.0625 72.4375C93.4375 73.4375 92.9792 74.6875 92.6875 76.1875C92.4375 77.6458 92.375 79.3958 92.5 81.4375C92.6667 83.9792 93.0833 86 93.75 87.5C94.4167 89 95.2292 90.125 96.1875 90.875C97.1458 91.625 98.1875 92.0833 99.3125 92.25C100.479 92.375 101.625 92.375 102.75 92.25C103.542 92.0833 104.271 91.7292 104.938 91.1875C105.479 90.7292 105.979 90.0625 106.438 89.1875C106.896 88.3125 107.104 87.1042 107.062 85.5625L114.688 85.25C113.812 87.7083 112.75 89.6667 111.5 91.125C110.25 92.5417 109.042 93.6458 107.875 94.4375C106.5 95.3542 105.125 95.9792 103.75 96.3125C102.042 96.6042 100.521 96.7292 99.1875 96.6875C97.8542 96.6042 96.6458 96.3958 95.5625 96.0625C94.4792 95.7292 93.4792 95.3125 92.5625 94.8125C91.6458 94.3125 90.7708 93.7708 89.9375 93.1875C89.3958 92.8125 88.7917 92.1875 88.125 91.3125C87.4583 90.4375 86.8333 89.3958 86.25 88.1875C85.6667 86.9375 85.1875 85.5625 84.8125 84.0625C84.4375 82.5625 84.2917 81.0208 84.375 79.4375C84.4583 77.8125 84.8333 76.1875 85.5 74.5625C86.1667 72.9375 87.2292 71.375 88.6875 69.875C90.8958 67.625 93.25 66.1667 95.75 65.5C98.2917 64.7917 100.688 64.6042 102.938 64.9375C105.188 65.2292 107.188 65.875 108.938 66.875C110.688 67.875 111.917 68.9583 112.625 70.125C113.333 71.2917 113.854 72.1875 114.188 72.8125C114.562 73.3958 114.833 73.8542 115 74.1875C115.208 74.4792 115.375 74.7083 115.5 74.875C115.667 75 115.896 75.1875 116.188 75.4375C116.396 75.6458 116.646 75.875 116.938 76.125C117.188 76.3333 117.479 76.5833 117.812 76.875C118.146 77.1667 118.521 77.4792 118.938 77.8125ZM117.25 60.625C118.5 60.75 119.542 60.8542 120.375 60.9375C121.25 61.0208 121.958 61.0833 122.5 61.125C123.125 61.1667 123.625 61.1875 124 61.1875C124.375 61.2292 124.875 61.2292 125.5 61.1875C126.042 61.1458 126.75 61.1042 127.625 61.0625C128.5 60.9792 129.604 60.8542 130.938 60.6875C130.646 61.1042 130.417 61.4792 130.25 61.8125C130.083 62.1042 129.938 62.375 129.812 62.625L129.438 63.375C129.354 63.625 129.271 63.875 129.188 64.125C129.104 64.3333 129.021 64.5833 128.938 64.875C128.896 65.1667 128.854 65.4792 128.812 65.8125H138.438L137.562 70.875L128.75 70.375C128.542 72.5 128.396 74.1458 128.312 75.3125C128.229 76.4792 128.146 77.3333 128.062 77.875L127.938 79C127.812 80.5833 127.688 82.3125 127.562 84.1875C127.438 86.0208 127.396 87.7292 127.438 89.3125C127.479 90.8958 127.625 92.2292 127.875 93.3125C128.125 94.3542 128.562 94.875 129.188 94.875C129.812 94.875 130.396 94.7083 130.938 94.375C131.479 94.0417 131.938 93.6458 132.312 93.1875C132.729 92.7292 133.042 92.2708 133.25 91.8125C133.458 91.3125 133.562 90.9375 133.562 90.6875C133.562 90.4375 133.5 90.1458 133.375 89.8125C133.167 89.1875 132.792 88.3958 132.25 87.4375C133.458 87.7292 134.521 88.0208 135.438 88.3125C135.896 88.4792 136.312 88.6458 136.688 88.8125C137.104 88.9792 137.583 89.1667 138.125 89.375C138.583 89.5833 139.167 89.8333 139.875 90.125C140.583 90.4167 141.417 90.7708 142.375 91.1875C141.458 91.3542 140.792 91.625 140.375 92C140.125 92.1667 139.938 92.3542 139.812 92.5625C139.521 93.0208 139.188 93.6458 138.812 94.4375C138.438 95.1875 137.875 95.9375 137.125 96.6875C136.375 97.4375 135.354 98.1042 134.062 98.6875C132.812 99.2708 131.125 99.6042 129 99.6875C126.792 99.7708 125.104 99.3958 123.938 98.5625C122.812 97.7292 121.979 96.7708 121.438 95.6875C120.938 94.5625 120.646 93.4583 120.562 92.375C120.479 91.2917 120.417 90.5625 120.375 90.1875C120.333 89.8125 120.333 88.875 120.375 87.375C120.417 85.875 120.479 84.2292 120.562 82.4375C120.646 80.6042 120.729 78.8542 120.812 77.1875C120.896 75.4792 120.938 74.2292 120.938 73.4375C120.938 73.0208 120.958 72.5833 121 72.125C121 71.75 121 71.3542 121 70.9375C121.042 70.4792 121.062 70.0417 121.062 69.625L112 69.5625L111.625 66L120.75 66.25C120.667 65.7917 120.562 65.375 120.438 65C120.354 64.5833 120.271 64.25 120.188 64C120.062 63.7083 119.938 63.4583 119.812 63.25C119.646 63.0417 119.458 62.8125 119.25 62.5625C119.042 62.3542 118.771 62.0833 118.438 61.75C118.104 61.4167 117.708 61.0417 117.25 60.625ZM139.812 72.0625L151.312 72.1875C150.646 74.7292 150.146 76.8958 149.812 78.6875C149.521 80.4792 149.333 81.9792 149.25 83.1875C149.083 84.5625 149.042 85.7292 149.125 86.6875C149.25 87.5625 149.458 88.5 149.75 89.5C150 90.3333 150.375 91.2917 150.875 92.375C151.375 93.4583 152.042 94.5417 152.875 95.625C152.375 95.4583 151.833 95.3333 151.25 95.25C150.667 95.1667 150.125 95.1042 149.625 95.0625C149.042 95.0208 148.458 95.0208 147.875 95.0625C147.292 95.1042 146.646 95.1667 145.938 95.25C145.354 95.3333 144.646 95.4375 143.812 95.5625C142.979 95.6875 142.104 95.8542 141.188 96.0625C141.812 94.1875 142.292 92.5625 142.625 91.1875C143 89.8125 143.271 88.6667 143.438 87.75C143.604 86.6667 143.708 85.7917 143.75 85.125C143.75 84.2917 143.75 83.3542 143.75 82.3125C143.75 81.2292 143.75 80.1875 143.75 79.1875C143.75 78.1875 143.729 77.3125 143.688 76.5625C143.646 75.7708 143.562 75.2708 143.438 75.0625L142.812 74.4375C142.562 74.2292 142.188 73.9375 141.688 73.5625C141.229 73.1458 140.604 72.6458 139.812 72.0625ZM144.25 62.4375C145.125 61.9792 146 61.8542 146.875 62.0625C147.792 62.2708 148.5 62.6667 149 63.25C149.5 63.8333 149.667 64.5208 149.5 65.3125C149.375 66.1042 148.708 66.875 147.5 67.625C146.292 68.3333 145.229 68.5833 144.312 68.375C143.396 68.1667 142.75 67.7292 142.375 67.0625C142 66.3958 141.938 65.625 142.188 64.75C142.438 63.8333 143.125 63.0625 144.25 62.4375ZM171.875 72C172.958 72 174.083 72.2083 175.25 72.625C176.417 73 177.542 73.5 178.625 74.125C179.708 74.7083 180.688 75.3542 181.562 76.0625C182.479 76.7292 183.229 77.375 183.812 78C184.854 79.125 185.562 80.6458 185.938 82.5625C186.354 84.4375 186.438 86.375 186.188 88.375C185.938 90.3333 185.354 92.1875 184.438 93.9375C183.521 95.6875 182.25 96.9792 180.625 97.8125C179.458 98.3958 178.312 98.8542 177.188 99.1875C176.062 99.5208 174.979 99.7708 173.938 99.9375C172.896 100.104 171.917 100.188 171 100.188C170.083 100.188 169.292 100.167 168.625 100.125C167.375 100.042 166.062 99.6042 164.688 98.8125C163.354 98.0208 162.083 97.0417 160.875 95.875C159.708 94.7083 158.708 93.4375 157.875 92.0625C157.042 90.6458 156.542 89.3125 156.375 88.0625C156.125 86.3542 156.083 84.5625 156.25 82.6875C156.417 80.8125 157.021 79.0833 158.062 77.5C159.146 75.9167 160.771 74.6042 162.938 73.5625C165.146 72.5208 168.125 72 171.875 72ZM169.812 96.25C170.271 96.3333 170.896 96.2292 171.688 95.9375C172.479 95.6042 173.25 95.0833 174 94.375C174.792 93.6667 175.479 92.7708 176.062 91.6875C176.688 90.5625 177.062 89.2083 177.188 87.625C177.312 86.0833 177.312 84.6667 177.188 83.375C177.104 82.0833 176.917 80.9583 176.625 80C176.333 79 176 78.1875 175.625 77.5625C175.25 76.9375 174.854 76.5 174.438 76.25C173.729 75.875 172.875 75.5833 171.875 75.375C170.875 75.125 170.021 75.1667 169.312 75.5C168.979 75.6667 168.562 76.0208 168.062 76.5625C167.562 77.1042 167.062 77.7917 166.562 78.625C166.062 79.4167 165.604 80.3333 165.188 81.375C164.812 82.4167 164.542 83.5 164.375 84.625C164.208 85.75 164.167 86.9583 164.25 88.25C164.375 89.5417 164.646 90.7708 165.062 91.9375C165.479 93.0625 166.062 94.0417 166.812 94.875C167.604 95.6667 168.604 96.125 169.812 96.25ZM191.125 93.125C191.417 91.75 191.625 90.5417 191.75 89.5C191.917 88.4167 192.042 87.5208 192.125 86.8125C192.208 85.9792 192.25 85.2708 192.25 84.6875C192.208 83.9792 192.167 83.1458 192.125 82.1875C192.125 81.1875 192.083 80.2083 192 79.25C191.958 78.25 191.896 77.375 191.812 76.625C191.729 75.8333 191.625 75.2708 191.5 74.9375C191.333 74.6042 191.104 74.25 190.812 73.875C190.229 73.1667 189.375 72.4792 188.25 71.8125C189.208 71.6042 190.021 71.4375 190.688 71.3125C191.396 71.1458 191.979 71 192.438 70.875C192.938 70.7083 193.375 70.5625 193.75 70.4375C194.083 70.3125 194.479 70.1875 194.938 70.0625C195.312 69.9792 195.771 69.875 196.312 69.75C196.854 69.625 197.479 69.4792 198.188 69.3125L198 75C199.333 73.4167 200.688 72.2292 202.062 71.4375C203.438 70.6458 204.729 70.0833 205.938 69.75C207.312 69.3333 208.667 69.125 210 69.125C211.667 69.2083 213.208 69.4792 214.625 69.9375C216.083 70.3958 217.333 70.9375 218.375 71.5625C219.458 72.1458 220.333 72.7708 221 73.4375C221.667 74.1042 222.062 74.6875 222.188 75.1875C222.688 76.8125 222.812 78.3125 222.562 79.6875C222.312 81.0208 221.979 82.3333 221.562 83.625C221.188 84.875 220.854 86.125 220.562 87.375C220.312 88.625 220.417 89.9792 220.875 91.4375C221.042 91.8125 221.208 92.1875 221.375 92.5625C221.542 92.8958 221.75 93.2292 222 93.5625C222.25 93.8958 222.542 94.1667 222.875 94.375C222.417 94.3333 221.958 94.3125 221.5 94.3125C221.042 94.2708 220.625 94.2292 220.25 94.1875C219.792 94.1458 219.375 94.1042 219 94.0625C218.583 94.0208 218.021 94 217.312 94C216.104 94 214.229 94.0625 211.688 94.1875C212.062 93.3125 212.354 92.5833 212.562 92C212.812 91.375 213.021 90.875 213.188 90.5C213.354 90.0417 213.479 89.6875 213.562 89.4375C214.062 88.2292 214.354 86.8542 214.438 85.3125C214.562 83.7708 214.458 82.2083 214.125 80.625C214 80.0833 213.792 79.4375 213.5 78.6875C213.208 77.9375 212.812 77.2083 212.312 76.5C211.854 75.7917 211.292 75.1875 210.625 74.6875C210 74.1875 209.271 73.8958 208.438 73.8125C207.604 73.7292 206.667 73.9375 205.625 74.4375C204.625 74.9375 203.542 75.8542 202.375 77.1875C201.5 78.3125 200.812 79.6875 200.312 81.3125C199.854 82.6875 199.542 84.4167 199.375 86.5C199.208 88.5417 199.458 90.9375 200.125 93.6875C199.542 93.6042 199 93.5625 198.5 93.5625C198 93.5208 197.583 93.4792 197.25 93.4375C196.833 93.3958 196.458 93.3542 196.125 93.3125C195.75 93.3125 195.333 93.2917 194.875 93.25C194.458 93.25 193.938 93.25 193.312 93.25C192.688 93.2083 191.958 93.1667 191.125 93.125Z" fill="white"/>
</svg>
