<svg width="255" height="110" viewBox="0 0 255 110" fill="none" xmlns="http://www.w3.org/2000/svg">
<path d="M87.7273 50.576L87.0233 52.752L76.0793 53.712L70.6393 51.024V53.52L60.5273 54.416L54.1273 51.216V2.576L66.6713 1.424L73.0713 4.624L78.1913 23.696L84.0793 1.168L96.5593 0.143997L102.959 3.344V52.048L92.3353 52.88L87.7273 50.576ZM84.5913 1.808L76.4633 33.168C76.3353 33.68 76.2073 34.2773 76.0793 34.96C75.9513 35.6 75.8446 36.176 75.7593 36.688C75.6739 37.2 75.6313 37.456 75.6313 37.456L75.3753 37.52C75.3753 37.52 75.3326 37.264 75.2473 36.752C75.2046 36.24 75.1193 35.6427 74.9913 34.96C74.9059 34.2773 74.7993 33.7013 74.6713 33.232L66.1593 2.128L54.7673 3.152V50.512L63.5993 49.808V29.328C63.5993 28.432 63.5779 27.4933 63.5353 26.512C63.4926 25.488 63.4499 24.6347 63.4073 23.952C63.3646 23.2693 63.3433 22.928 63.3433 22.928L63.4713 22.864C63.5566 23.4613 63.6633 24.208 63.7913 25.104C63.9619 25.9573 64.1326 26.7893 64.3033 27.6C64.5166 28.368 64.6659 28.9653 64.7513 29.392L70.1273 49.872L80.0473 48.976L85.2952 29.328C85.5513 28.3467 85.7859 27.3227 85.9993 26.256C86.2126 25.1467 86.3833 24.208 86.5113 23.44C86.6393 22.672 86.7033 22.288 86.7033 22.288L86.8313 22.352C86.8313 22.352 86.8099 22.736 86.7673 23.504C86.7246 24.272 86.6819 25.168 86.6393 26.192C86.5966 27.216 86.5753 28.1333 86.5753 28.944V49.04L95.9193 48.272V0.848L84.5913 1.808ZM143.895 51.152C142.53 51.7067 141.122 51.984 139.671 51.984C138.349 51.984 137.133 51.792 136.023 51.408C134.914 51.0667 134.061 50.7253 133.463 50.384C131.586 52.6453 128.834 53.9467 125.207 54.288C124.866 54.3307 124.525 54.352 124.183 54.352C123.842 54.352 123.501 54.352 123.159 54.352C120.514 54.352 118.082 53.8827 115.863 52.944C113.645 52.048 111.853 50.6827 110.487 48.848C109.165 46.9707 108.503 44.6667 108.503 41.936C108.503 38.992 109.314 36.6453 110.935 34.896C112.599 33.1467 115.074 31.4827 118.359 29.904L115.095 28.816L108.695 25.616C109.762 21.904 111.49 19.1093 113.879 17.232C116.311 15.3547 119.063 14.2667 122.135 13.968C122.519 13.9253 122.903 13.904 123.287 13.904C123.671 13.8613 124.034 13.84 124.375 13.84C127.447 13.84 130.242 14.416 132.759 15.568C135.277 16.6773 137.282 18.2773 138.775 20.368C140.269 22.416 141.015 24.8267 141.015 27.6V39.76L144.919 41.68L143.895 51.152ZM137.751 39.568C136.727 40.0373 135.959 40.272 135.447 40.272C134.466 40.272 133.975 39.632 133.975 38.352V24.4C133.975 17.8293 130.669 14.544 124.055 14.544C123.757 14.544 123.458 14.544 123.159 14.544C122.861 14.544 122.541 14.5653 122.199 14.608C119.255 14.9067 116.631 15.9307 114.327 17.68C112.023 19.4293 110.402 21.968 109.463 25.296L116.631 27.664C117.101 26.2133 117.741 25.04 118.551 24.144C119.405 23.248 120.365 22.7573 121.431 22.672C121.559 22.672 121.687 22.672 121.815 22.672C121.943 22.6293 122.05 22.608 122.135 22.608C123.117 22.608 123.863 22.8427 124.375 23.312C124.887 23.7813 125.143 24.4213 125.143 25.232C125.143 26.128 124.866 26.8533 124.311 27.408C123.757 27.92 122.989 28.4107 122.007 28.88L119.127 30.224C115.842 31.76 113.346 33.3813 111.639 35.088C109.975 36.752 109.143 39.0347 109.143 41.936C109.143 47.6533 111.831 50.512 117.207 50.512C117.463 50.512 117.719 50.512 117.975 50.512C118.231 50.512 118.487 50.4907 118.743 50.448C120.791 50.2773 122.562 49.7867 124.055 48.976C125.549 48.1653 126.679 47.0133 127.447 45.52C127.746 46.416 128.386 47.12 129.367 47.632C130.349 48.144 131.501 48.4 132.823 48.4C134.231 48.4 135.575 48.1227 136.855 47.568L137.751 39.568ZM120.535 43.024C119.81 43.024 119.213 42.832 118.743 42.448C118.274 42.0213 118.039 41.424 118.039 40.656C118.039 38.8213 118.978 37.456 120.855 36.56L122.135 35.92C122.733 35.6213 123.309 35.344 123.863 35.088C124.461 34.7893 124.909 34.4693 125.207 34.128V38.544C124.994 39.8667 124.482 40.9333 123.671 41.744C122.861 42.512 121.965 42.9387 120.983 43.024H120.535ZM148.539 50.576V1.936L158.971 1.04L165.371 4.24V13.136C166.353 13.008 167.291 12.944 168.187 12.944C171.217 12.944 173.99 13.712 176.507 15.248C179.067 16.7413 181.115 19.024 182.651 22.096C184.23 25.1253 185.019 28.9653 185.019 33.616C185.019 39.76 183.803 44.4747 181.371 47.76C178.982 51.0027 175.803 52.7947 171.835 53.136C171.707 53.136 171.558 53.136 171.387 53.136C171.259 53.1787 171.11 53.2 170.939 53.2C169.574 53.2 168.209 52.9653 166.843 52.496C165.521 52.0693 164.475 51.6 163.707 51.088L162.427 53.136L154.939 53.776L148.539 50.576ZM157.755 46.224C158.353 46.8213 159.185 47.504 160.251 48.272C161.361 49.04 162.769 49.424 164.475 49.424C164.603 49.424 164.731 49.424 164.859 49.424C165.03 49.3813 165.201 49.36 165.371 49.36C169.211 49.0187 172.262 47.2693 174.523 44.112C176.827 40.912 177.979 36.3467 177.979 30.416C177.979 24.912 176.977 20.752 174.971 17.936C173.009 15.12 170.193 13.712 166.523 13.712C166.353 13.712 166.139 13.712 165.883 13.712C165.67 13.712 165.457 13.7333 165.243 13.776C163.281 13.9467 161.766 14.5653 160.699 15.632C159.633 16.6987 158.907 17.7013 158.523 18.64L158.331 18.576V1.744L149.179 2.512V49.936L155.707 49.36L157.755 46.224ZM162.875 41.296C161.553 41.296 160.55 40.912 159.867 40.144C159.227 39.376 158.715 38.6507 158.331 37.968V29.264C158.331 27.3867 158.801 25.8507 159.739 24.656C160.721 23.4613 161.873 22.8 163.195 22.672H163.707C165.499 22.672 166.758 23.4187 167.483 24.912C168.209 26.3627 168.571 28.4747 168.571 31.248C168.571 34.6187 168.059 37.1147 167.035 38.736C166.054 40.3147 164.817 41.168 163.323 41.296H162.875ZM165.371 39.76C166.182 39.12 166.801 38.096 167.227 36.688C167.697 35.28 167.931 33.4667 167.931 31.248C167.931 30.5227 167.91 29.7973 167.867 29.072C167.825 28.3467 167.739 27.7707 167.611 27.344C166.758 27.6 166.161 28.1547 165.819 29.008C165.521 29.8613 165.371 31.0133 165.371 32.464V39.76ZM189.797 49.808V14.608L194.149 14.288L189.669 12.048V1.168L200.357 0.271999L206.757 3.472V14.352L202.213 14.736L206.565 16.912V52.048L196.197 52.944L189.797 49.808ZM190.309 1.744V11.344L199.717 10.576V0.975998L190.309 1.744ZM190.437 15.184V49.104L199.525 48.336V14.416L190.437 15.184ZM28.5585 104.232L26.1905 96.616L21.1345 97.064L17.9985 108.264L7.1185 109.224L0.7185 106.024L14.7345 56.04L25.2945 55.144L31.6945 58.344L45.9665 106.536L34.9585 107.432L28.5585 104.232ZM15.2465 56.68L1.6785 105.256L11.0225 104.488L14.2225 93.288L25.6145 92.264L29.0065 103.592L38.6705 102.76L24.7825 55.848L15.2465 56.68ZM16.4625 83.944C17.2732 81.2987 17.9345 78.7813 18.4465 76.392C19.0012 74.0027 19.4705 71.6133 19.8545 69.224H20.1105C20.4518 71.5707 20.8785 73.8747 21.3905 76.136C21.9452 78.3547 22.6065 80.744 23.3745 83.304L16.4625 83.944ZM69.96 106.792C69.4907 107.219 68.744 107.624 67.72 108.008C66.7387 108.392 65.672 108.627 64.52 108.712C64.3067 108.755 64.072 108.776 63.816 108.776C63.56 108.776 63.3253 108.776 63.112 108.776C61.4053 108.776 59.656 108.541 57.864 108.072C56.1147 107.645 54.4933 106.941 53 105.96C51.5067 105.021 50.2907 103.784 49.352 102.248C48.456 100.669 48.008 98.792 48.008 96.616V70.44L58.44 69.544L64.2 72.36V93.672C64.4133 93.4587 64.6053 93.3307 64.776 93.288C64.9893 93.2027 65.1813 93.0107 65.352 92.712V69.544L75.72 68.648L82.12 71.848V107.048L72.264 107.88L69.96 106.792ZM65.992 70.12V92.84C65.5653 93.6507 64.9893 94.312 64.264 94.824C63.5813 95.2933 62.6427 95.592 61.448 95.72H61.128C60.232 95.72 59.4427 95.4213 58.76 94.824C58.12 94.2267 57.8 93.2027 57.8 91.752V70.248L48.648 71.016V96.616C48.648 99.56 49.4587 101.693 51.08 103.016C52.7013 104.339 54.7067 105 57.096 105H58.312C60.36 104.787 62.1093 104.147 63.56 103.08C65.0533 101.971 65.9707 100.627 66.312 99.048L66.504 99.112V104.04L75.08 103.272V69.352L65.992 70.12ZM122.629 94.952C121.904 99.1333 120.389 102.44 118.085 104.872C115.824 107.261 112.73 108.627 108.805 108.968C108.378 109.011 107.952 109.032 107.525 109.032C107.098 109.075 106.672 109.096 106.245 109.096C103.6 109.096 101.082 108.712 98.693 107.944C96.3463 107.219 94.2557 106.045 92.421 104.424C90.629 102.803 89.1997 100.691 88.133 98.088C87.109 95.4853 86.597 92.3493 86.597 88.68C86.597 85.0107 87.2157 81.7467 88.453 78.888C89.733 75.9867 91.5463 73.6827 93.893 71.976C96.2397 70.2267 99.0343 69.224 102.277 68.968C102.49 68.9253 102.725 68.904 102.981 68.904C103.237 68.904 103.493 68.904 103.749 68.904C105.754 68.904 107.802 69.2027 109.893 69.8C111.984 70.3973 113.946 71.272 115.781 72.424C117.616 73.576 119.152 75.0053 120.389 76.712C121.626 78.376 122.352 80.296 122.565 82.472L113.733 86.632L107.333 83.432C107.333 83.3467 107.312 83.2827 107.269 83.24C107.269 83.1547 107.269 83.0907 107.269 83.048C106.074 83.3467 105.221 84.0507 104.709 85.16C104.197 86.2267 103.941 88.1893 103.941 91.048C103.941 91.8587 104.005 92.5627 104.133 93.16C104.261 93.7573 104.432 94.3333 104.645 94.888C105.37 94.504 105.946 93.928 106.373 93.16C106.8 92.392 107.141 91.2827 107.397 89.832L116.229 91.752L122.629 94.952ZM107.909 90.664C107.61 92.4133 106.992 93.7573 106.053 94.696C105.157 95.6347 104.069 96.168 102.789 96.296C102.661 96.296 102.533 96.3173 102.405 96.36C102.277 96.36 102.17 96.36 102.085 96.36C100.25 96.36 98.949 95.656 98.181 94.248C97.413 92.7973 97.029 90.664 97.029 87.848C97.029 84.904 97.5197 82.6853 98.501 81.192C99.525 79.6987 100.89 78.8667 102.597 78.696C102.725 78.696 102.853 78.696 102.981 78.696C103.109 78.6533 103.216 78.632 103.301 78.632C105.776 78.632 107.269 79.9333 107.781 82.536L115.397 78.952C114.842 76.1787 113.541 73.9173 111.493 72.168C109.445 70.4187 106.842 69.544 103.685 69.544C103.472 69.544 103.237 69.544 102.981 69.544C102.768 69.544 102.554 69.5653 102.341 69.608C99.1837 69.864 96.4743 70.8453 94.213 72.552C91.9517 74.216 90.2237 76.4347 89.029 79.208C87.8343 81.9813 87.237 85.1387 87.237 88.68C87.237 92.5627 87.813 95.72 88.965 98.152C90.117 100.584 91.6957 102.376 93.701 103.528C95.7063 104.637 97.989 105.192 100.549 105.192C100.848 105.192 101.146 105.192 101.445 105.192C101.744 105.192 102.042 105.171 102.341 105.128C106.096 104.829 109.061 103.549 111.237 101.288C113.413 98.984 114.821 95.976 115.461 92.264L107.909 90.664ZM151.031 108.008C150.049 108.051 149.089 108.093 148.151 108.136C147.255 108.221 146.38 108.264 145.527 108.264C139.468 108.264 134.988 107.155 132.087 104.936C129.185 102.717 127.735 99.0693 127.735 93.992V81.768L123.639 79.72V70.056L127.735 69.736V59.304L138.103 58.344L144.503 61.544V68.904L149.815 71.528V81.192L144.503 81.64V94.504L146.679 94.312L153.079 97.512L151.031 108.008ZM145.847 95.08C144.908 95.1653 144.076 95.2507 143.351 95.336C142.668 95.3787 142.028 95.4 141.431 95.4C139.639 95.4 138.529 95.08 138.103 94.44C137.676 93.8 137.463 92.6907 137.463 91.112V77.864L142.775 77.416V69.032L137.463 69.48V59.048L128.375 59.88V70.312L124.279 70.632V79.016L128.375 78.696V93.992C128.375 96.552 128.695 98.6 129.335 100.136C129.975 101.672 131.063 102.781 132.599 103.464C134.177 104.147 136.353 104.488 139.127 104.488C139.852 104.488 140.62 104.467 141.431 104.424C142.241 104.381 143.116 104.317 144.055 104.232L145.847 95.08ZM157.141 104.808V69.608L161.493 69.288L157.013 67.048V56.168L167.701 55.272L174.101 58.472V69.352L169.557 69.736L173.909 71.912V107.048L163.541 107.944L157.141 104.808ZM157.653 56.744V66.344L167.061 65.576V55.976L157.653 56.744ZM157.781 70.184V104.104L166.869 103.336V69.416L157.781 70.184ZM200.993 108.904C200.566 108.947 200.118 108.968 199.649 108.968C199.222 109.011 198.774 109.032 198.305 109.032C194.465 109.032 191.073 108.243 188.129 106.664C185.185 105.085 182.881 102.781 181.217 99.752C179.595 96.68 178.785 92.9893 178.785 88.68C178.785 85.3093 179.339 82.1947 180.449 79.336C181.601 76.4347 183.329 74.0453 185.633 72.168C187.979 70.2907 190.923 69.2027 194.465 68.904C194.806 68.8613 195.147 68.84 195.489 68.84C195.83 68.84 196.171 68.84 196.513 68.84C199.243 68.84 201.803 69.3307 204.193 70.312C206.625 71.2933 208.758 72.68 210.593 74.472C212.47 76.264 213.942 78.4187 215.009 80.936C216.075 83.4107 216.609 86.1627 216.609 89.192C216.609 92.5627 216.033 95.6987 214.881 98.6C213.771 101.459 212.065 103.805 209.761 105.64C207.457 107.475 204.534 108.563 200.993 108.904ZM194.529 105.064C197.942 104.765 200.758 103.72 202.977 101.928C205.195 100.136 206.838 97.8533 207.905 95.08C209.014 92.264 209.569 89.2347 209.569 85.992C209.569 82.8773 209.078 80.0827 208.097 77.608C207.158 75.1333 205.686 73.1707 203.681 71.72C201.718 70.2267 199.201 69.48 196.128 69.48C195.873 69.48 195.617 69.48 195.361 69.48C195.105 69.48 194.827 69.5013 194.529 69.544C191.115 69.8427 188.278 70.9093 186.017 72.744C183.798 74.536 182.134 76.8187 181.025 79.592C179.958 82.3653 179.424 85.3947 179.424 88.68C179.424 91.752 179.915 94.5467 180.897 97.064C181.878 99.5387 183.371 101.501 185.377 102.952C187.382 104.403 189.899 105.128 192.929 105.128C193.185 105.128 193.441 105.128 193.697 105.128C193.953 105.128 194.23 105.107 194.529 105.064ZM193.953 96.232C192.374 96.232 191.137 95.5493 190.241 94.184C189.387 92.8187 188.961 90.7067 188.961 87.848C188.961 84.8613 189.451 82.6213 190.433 81.128C191.414 79.592 192.779 78.7387 194.529 78.568H195.105C196.683 78.568 197.899 79.2507 198.753 80.616C199.606 81.9387 200.033 84.008 200.033 86.824C200.033 89.8107 199.542 92.0933 198.561 93.672C197.622 95.208 196.278 96.0613 194.529 96.232H193.953ZM196.385 95.016C198.39 93.9067 199.393 91.176 199.393 86.824C199.393 85.3307 199.265 84.0507 199.009 82.984C197.899 83.1547 197.11 83.9227 196.641 85.288C196.214 86.6107 196.001 88.5307 196.001 91.048C196.001 92.584 196.129 93.9067 196.385 95.016ZM238.095 104.744V84.712C237.583 85.224 237.263 85.8213 237.135 86.504V107.752L227.47 108.712L221.071 105.512V70.376L230.863 69.48L232.911 71.144C233.636 70.5467 234.425 70.0133 235.279 69.544C236.132 69.032 237.156 68.7333 238.351 68.648C238.564 68.648 238.756 68.648 238.927 68.648C239.097 68.6053 239.268 68.584 239.439 68.584C241.359 68.584 243.236 68.9253 245.071 69.608C246.948 70.2907 248.612 71.2507 250.062 72.488C251.556 73.6827 252.729 75.0907 253.583 76.712C254.479 78.3333 254.927 80.0827 254.927 81.96V106.984L244.495 107.88L238.095 104.744ZM247.887 77.736C247.887 74.792 247.076 72.6373 245.455 71.272C243.876 69.9067 241.913 69.224 239.567 69.224C239.396 69.224 239.204 69.224 238.991 69.224C238.82 69.224 238.628 69.2453 238.415 69.288C236.324 69.4587 234.553 70.2693 233.103 71.72C231.652 73.128 230.756 74.7707 230.415 76.648H230.223V70.184L221.711 70.952V104.872L230.863 104.04V83.24C231.076 82.216 231.545 81.2773 232.271 80.424C233.039 79.5707 234.02 79.08 235.215 78.952H235.471C236.367 78.952 237.135 79.272 237.775 79.912C238.415 80.5093 238.735 81.512 238.735 82.92V104.04L247.887 103.208V77.736Z" fill="white"/>
</svg>
